<?xml version="1.0" encoding="UTF-8" standalone="no"?><!DOCTYPE svg PUBLIC "-//W3C//DTD SVG 1.1//EN" "http://www.w3.org/Graphics/SVG/1.1/DTD/svg11.dtd"><svg width="100%" height="100%" viewBox="0 0 6000 6000" version="1.1" xmlns="http://www.w3.org/2000/svg" xmlns:xlink="http://www.w3.org/1999/xlink" xml:space="preserve" xmlns:serif="http://www.serif.com/" style="fill-rule:evenodd;clip-rule:evenodd;stroke-linejoin:round;stroke-miterlimit:2;"><g><path d="M6000,1236.967c0,227.567 -184.755,412.322 -412.322,412.322l-5175.355,0c-227.567,0 -412.322,-184.755 -412.322,-412.322c0,-227.567 184.755,-412.322 412.322,-412.322l5175.355,0c227.567,0 412.322,184.755 412.322,412.322Z" style="fill:#97d3cd;"/><path d="M6000,3000c0,227.567 -184.755,412.322 -412.322,412.322l-5175.355,0c-227.567,0 -412.322,-184.755 -412.322,-412.322c0,-227.567 184.755,-412.322 412.322,-412.322l5175.355,0c227.567,0 412.322,184.755 412.322,412.322Z" style="fill:#97d3cd;"/><path d="M6000,4763.033c0,227.567 -184.755,412.322 -412.322,412.322l-5175.355,0c-227.567,0 -412.322,-184.755 -412.322,-412.322c0,-227.567 184.755,-412.322 412.322,-412.322l5175.355,0c227.567,0 412.322,184.755 412.322,412.322Z" style="fill:#97d3cd;"/></g></svg>